<?xml version="1.0" standalone="no"?><!DOCTYPE svg PUBLIC "-//W3C//DTD SVG 1.1//EN" "http://www.w3.org/Graphics/SVG/1.1/DTD/svg11.dtd"><svg class="icon" width="200px" height="200.00px" viewBox="0 0 1024 1024" version="1.1" xmlns="http://www.w3.org/2000/svg"><path d="M365.92 2.72h292.16Q1024 2.72 1024 366.4v291.2q0 363.68-365.28 363.68h-292.8Q0 1021.28 0 657.6V366.4Q0 2.88 365.92 2.72z" fill="#FFF0F0" /><path d="M355.84 406.4l-5.76-23.84h-34.4l-5.76 23.84h-33.44l32-122.72h48l33.12 122.72z m-34.24-48h22.72l-11.2-48zM429.76 406.4h-30.88v-122.72h30.88z" fill="#FF5C64" /><path d="M531.2 257.44a402.88 402.88 0 0 0-73.44 6.24 126.4 126.4 0 0 1 20.32 76q0 114.88-114.72 114.88A124.16 124.16 0 0 1 284.16 432a386.24 386.24 0 0 0-7.52 80q0 254.72 254.56 254.56T785.76 512q0-254.56-254.56-254.56z m72.96 321.28a14.08 14.08 0 0 1 10.56 5.12 16 16 0 0 1 0 21.92 14.4 14.4 0 0 1-10.56 4.96h-48v26.88a20.64 20.64 0 0 1-23.68 21.6 26.08 26.08 0 0 1-17.44-5.28 21.44 21.44 0 0 1-6.72-16v-26.88h-49.92a13.12 13.12 0 0 1-10.56-5.76 23.84 23.84 0 0 1-4.48-11.52 17.76 17.76 0 0 1 4.48-10.56 14.72 14.72 0 0 1 10.56-4.48h49.12v-16h-49.12a14.4 14.4 0 0 1-10.56-4.8 19.2 19.2 0 0 1-4.48-11.04 17.76 17.76 0 0 1 4.48-10.4 16 16 0 0 1 10.56-4.64h36.64l-34.08-60a32.8 32.8 0 0 1-4.8-7.84 20 20 0 0 1-2.08-10.24 22.56 22.56 0 0 1 5.12-11.52 21.12 21.12 0 0 1 14.24-5.76 20.64 20.64 0 0 1 10.88 4.16 33.6 33.6 0 0 1 7.84 8l38.72 70.72L573.44 448a32 32 0 0 1 7.84-7.68 23.52 23.52 0 0 1 11.04-4 41.92 41.92 0 0 1 6.88 0.96 15.04 15.04 0 0 1 5.6 2.56 13.6 13.6 0 0 1 4.16 5.12 27.84 27.84 0 0 1 2.4 8.64 22.4 22.4 0 0 1-5.12 13.92l-39.36 64h37.28a16 16 0 0 1 10.56 4.64 16 16 0 0 1 4.32 10.4 19.04 19.04 0 0 1-4.48 11.2 16 16 0 0 1-10.56 5.12h-48v16z" fill="#FF5C64" /></svg>